<?xml version="1.0" standalone="no"?>
<!DOCTYPE svg PUBLIC "-//W3C//DTD SVG 20010904//EN"
 "http://www.w3.org/TR/2001/REC-SVG-20010904/DTD/svg10.dtd">
<svg version="1.0" xmlns="http://www.w3.org/2000/svg"
 width="500.000000pt" height="500.000000pt" viewBox="0 0 500.000000 500.000000"
 preserveAspectRatio="xMidYMid meet">
<metadata>
Created by potrace 1.14, written by Peter Selinger 2001-2017
</metadata>
<g transform="translate(0.000000,500.000000) scale(0.100000,-0.100000)"
fill="#000000" stroke="none">
<path d="M2250 4040 c-170 -29 -282 -65 -435 -140 -466 -227 -786 -669 -860
-1188 -12 -87 -14 -378 -2 -422 2 -8 8 -37 12 -65 25 -143 68 -273 136 -410
28 -55 56 -109 62 -120 30 -49 71 -110 76 -115 3 -3 25 -30 48 -60 45 -60 169
-182 247 -245 213 -172 490 -286 791 -325 69 -9 332 -7 390 3 86 15 103 19
140 28 22 6 49 13 59 15 118 22 369 144 502 241 211 156 364 336 478 559 25
50 46 95 46 99 0 4 6 21 14 38 29 64 64 184 81 277 42 240 33 504 -25 690 -6
19 -13 46 -16 60 -8 38 -70 189 -98 240 -14 25 -30 56 -36 69 -15 33 -134 205
-173 249 -66 73 -170 172 -239 225 -166 128 -420 244 -618 283 -58 11 -76 15
-100 20 -14 3 -104 7 -200 9 -136 3 -199 -1 -280 -15z"/>
</g>
</svg>
